ISO-10303-21;
HEADER;
FILE_DESCRIPTION(('STEP AP242'),'1');
FILE_NAME('fss.stp','2026-07-27T06:37:52',('admin'),(' '),'Spatial InterOp 3D','CST ACIS InterOp Converter 2025',' ');
FILE_SCHEMA(('AP242_MANAGED_MODEL_BASED_3D_ENGINEERING_MIM_LF  {1 0 10303 442 1 1 4}'));
ENDSEC;
DATA;
#1=MECHANICAL_DESIGN_GEOMETRIC_PRESENTATION_REPRESENTATION(' ',(#11,#12),#7);
#2=PRODUCT_DEFINITION_CONTEXT('',#13,'design');
#3=APPLICATION_PROTOCOL_DEFINITION('INTERNATIONAL STANDARD','ap242_managed_model_based_3d_engineering',2014,#13);
#4=PRODUCT_CATEGORY_RELATIONSHIP('NONE','NONE',#14,#15);
#5=SHAPE_DEFINITION_REPRESENTATION(#16,#17);
#6=SHAPE_DEFINITION_REPRESENTATION(#16,#18);
#7= (GEOMETRIC_REPRESENTATION_CONTEXT(3)GLOBAL_UNCERTAINTY_ASSIGNED_CONTEXT((#21))GLOBAL_UNIT_ASSIGNED_CONTEXT((#23,#24,#25))REPRESENTATION_CONTEXT('NONE','WORKSPACE'));
#11=STYLED_ITEM('',(#27),#28);
#12=STYLED_ITEM('',(#29),#30);
#13=APPLICATION_CONTEXT('managed model based 3d engineering');
#14=PRODUCT_CATEGORY('part','NONE');
#15=PRODUCT_RELATED_PRODUCT_CATEGORY('detail',' ',(#31));
#16=PRODUCT_DEFINITION_SHAPE('NONE','NONE',#32);
#17=ADVANCED_BREP_SHAPE_REPRESENTATION('component1|Substrate',(#28,#33),#7);
#18=ADVANCED_BREP_SHAPE_REPRESENTATION('component1|solid1',(#30,#34),#7);
#21=UNCERTAINTY_MEASURE_WITH_UNIT(LENGTH_MEASURE(1.0E-06),#23,'','');
#23= (CONVERSION_BASED_UNIT('MILLIMETRE',#37)LENGTH_UNIT()NAMED_UNIT(#40));
#24= (NAMED_UNIT(#42)PLANE_ANGLE_UNIT()SI_UNIT($,.RADIAN.));
#25= (NAMED_UNIT(#42)SOLID_ANGLE_UNIT()SI_UNIT($,.STERADIAN.));
#27=PRESENTATION_STYLE_ASSIGNMENT((#48));
#28=MANIFOLD_SOLID_BREP('component1|Substrate',#49);
#29=PRESENTATION_STYLE_ASSIGNMENT((#50));
#30=MANIFOLD_SOLID_BREP('component1|solid1',#51);
#31=PRODUCT('component1|Substrate','','PART--DESC',(#52));
#32=PRODUCT_DEFINITION('','NONE',#53,#2);
#33=AXIS2_PLACEMENT_3D('',#54,#55,#56);
#34=AXIS2_PLACEMENT_3D('',#57,#58,#59);
#37=LENGTH_MEASURE_WITH_UNIT(LENGTH_MEASURE(1.0),#60);
#40=DIMENSIONAL_EXPONENTS(1.0,0.0,0.0,0.0,0.0,0.0,0.0);
#42=DIMENSIONAL_EXPONENTS(0.0,0.0,0.0,0.0,0.0,0.0,0.0);
#48=SURFACE_STYLE_USAGE(.BOTH.,#61);
#49=CLOSED_SHELL('',(#62,#63,#64,#65,#66,#67));
#50=SURFACE_STYLE_USAGE(.BOTH.,#68);
#51=CLOSED_SHELL('',(#69,#70,#71,#72,#73,#74,#75,#76,#77,#78,#79,#80,#81,#82));
#52=PRODUCT_CONTEXT('',#13,'mechanical');
#53=PRODUCT_DEFINITION_FORMATION_WITH_SPECIFIED_SOURCE(' ','NONE',#31,.NOT_KNOWN.);
#54=CARTESIAN_POINT('',(0.0,0.0,0.0));
#55=DIRECTION('',(0.0,0.0,1.0));
#56=DIRECTION('',(1.0,0.0,0.0));
#57=CARTESIAN_POINT('',(0.0,0.0,0.0));
#58=DIRECTION('',(0.0,0.0,1.0));
#59=DIRECTION('',(1.0,0.0,0.0));
#60= (NAMED_UNIT(#40)LENGTH_UNIT()SI_UNIT(.MILLI.,.METRE.));
#61=SURFACE_SIDE_STYLE('',(#84));
#62=ADVANCED_FACE('',(#85),#86,.T.);
#63=ADVANCED_FACE('',(#87),#88,.F.);
#64=ADVANCED_FACE('',(#89),#90,.F.);
#65=ADVANCED_FACE('',(#91),#92,.F.);
#66=ADVANCED_FACE('',(#93),#94,.F.);
#67=ADVANCED_FACE('',(#95),#96,.F.);
#68=SURFACE_SIDE_STYLE('',(#97));
#69=ADVANCED_FACE('',(#98),#99,.F.);
#70=ADVANCED_FACE('',(#100),#101,.F.);
#71=ADVANCED_FACE('',(#102),#103,.F.);
#72=ADVANCED_FACE('',(#104),#105,.F.);
#73=ADVANCED_FACE('',(#106),#107,.F.);
#74=ADVANCED_FACE('',(#108),#109,.F.);
#75=ADVANCED_FACE('',(#110),#111,.T.);
#76=ADVANCED_FACE('',(#112),#113,.F.);
#77=ADVANCED_FACE('',(#114),#115,.F.);
#78=ADVANCED_FACE('',(#116),#117,.F.);
#79=ADVANCED_FACE('',(#118),#119,.F.);
#80=ADVANCED_FACE('',(#120),#121,.F.);
#81=ADVANCED_FACE('',(#122),#123,.F.);
#82=ADVANCED_FACE('',(#124),#125,.F.);
#84=SURFACE_STYLE_FILL_AREA(#126);
#85=FACE_OUTER_BOUND('',#127,.T.);
#86=PLANE('',#128);
#87=FACE_OUTER_BOUND('',#129,.T.);
#88=PLANE('',#130);
#89=FACE_OUTER_BOUND('',#131,.T.);
#90=PLANE('',#132);
#91=FACE_OUTER_BOUND('',#133,.T.);
#92=PLANE('',#134);
#93=FACE_OUTER_BOUND('',#135,.T.);
#94=PLANE('',#136);
#95=FACE_OUTER_BOUND('',#137,.T.);
#96=PLANE('',#138);
#97=SURFACE_STYLE_FILL_AREA(#139);
#98=FACE_OUTER_BOUND('',#140,.T.);
#99=PLANE('',#141);
#100=FACE_OUTER_BOUND('',#142,.T.);
#101=PLANE('',#143);
#102=FACE_OUTER_BOUND('',#144,.T.);
#103=PLANE('',#145);
#104=FACE_OUTER_BOUND('',#146,.T.);
#105=PLANE('',#147);
#106=FACE_OUTER_BOUND('',#148,.T.);
#107=PLANE('',#149);
#108=FACE_OUTER_BOUND('',#150,.T.);
#109=PLANE('',#151);
#110=FACE_OUTER_BOUND('',#152,.T.);
#111=PLANE('',#153);
#112=FACE_OUTER_BOUND('',#154,.T.);
#113=PLANE('',#155);
#114=FACE_OUTER_BOUND('',#156,.T.);
#115=PLANE('',#157);
#116=FACE_OUTER_BOUND('',#158,.T.);
#117=PLANE('',#159);
#118=FACE_OUTER_BOUND('',#160,.T.);
#119=PLANE('',#161);
#120=FACE_OUTER_BOUND('',#162,.T.);
#121=PLANE('',#163);
#122=FACE_OUTER_BOUND('',#164,.T.);
#123=PLANE('',#165);
#124=FACE_OUTER_BOUND('',#166,.T.);
#125=PLANE('',#167);
#126=FILL_AREA_STYLE('',(#168));
#127=EDGE_LOOP('',(#169,#170,#171,#172));
#128=AXIS2_PLACEMENT_3D('',#173,#174,#175);
#129=EDGE_LOOP('',(#176,#177,#178,#179));
#130=AXIS2_PLACEMENT_3D('',#180,#181,#182);
#131=EDGE_LOOP('',(#183,#184,#185,#186));
#132=AXIS2_PLACEMENT_3D('',#187,#188,#189);
#133=EDGE_LOOP('',(#190,#191,#192,#193));
#134=AXIS2_PLACEMENT_3D('',#194,#195,#196);
#135=EDGE_LOOP('',(#197,#198,#199,#200));
#136=AXIS2_PLACEMENT_3D('',#201,#202,#203);
#137=EDGE_LOOP('',(#204,#205,#206,#207));
#138=AXIS2_PLACEMENT_3D('',#208,#209,#210);
#139=FILL_AREA_STYLE('',(#211));
#140=EDGE_LOOP('',(#212,#213,#214,#215));
#141=AXIS2_PLACEMENT_3D('',#216,#217,#218);
#142=EDGE_LOOP('',(#219,#220,#221,#222));
#143=AXIS2_PLACEMENT_3D('',#223,#224,#225);
#144=EDGE_LOOP('',(#226,#227,#228,#229));
#145=AXIS2_PLACEMENT_3D('',#230,#231,#232);
#146=EDGE_LOOP('',(#233,#234,#235,#236));
#147=AXIS2_PLACEMENT_3D('',#237,#238,#239);
#148=EDGE_LOOP('',(#240,#241,#242,#243));
#149=AXIS2_PLACEMENT_3D('',#244,#245,#246);
#150=EDGE_LOOP('',(#247,#248,#249,#250));
#151=AXIS2_PLACEMENT_3D('',#251,#252,#253);
#152=EDGE_LOOP('',(#254,#255,#256,#257,#258,#259,#260,#261,#262,#263,#264,#265));
#153=AXIS2_PLACEMENT_3D('',#266,#267,#268);
#154=EDGE_LOOP('',(#269,#270,#271,#272));
#155=AXIS2_PLACEMENT_3D('',#273,#274,#275);
#156=EDGE_LOOP('',(#276,#277,#278,#279));
#157=AXIS2_PLACEMENT_3D('',#280,#281,#282);
#158=EDGE_LOOP('',(#283,#284,#285,#286,#287,#288,#289,#290,#291,#292,#293,#294));
#159=AXIS2_PLACEMENT_3D('',#295,#296,#297);
#160=EDGE_LOOP('',(#298,#299,#300,#301));
#161=AXIS2_PLACEMENT_3D('',#302,#303,#304);
#162=EDGE_LOOP('',(#305,#306,#307,#308));
#163=AXIS2_PLACEMENT_3D('',#309,#310,#311);
#164=EDGE_LOOP('',(#312,#313,#314,#315));
#165=AXIS2_PLACEMENT_3D('',#316,#317,#318);
#166=EDGE_LOOP('',(#319,#320,#321,#322));
#167=AXIS2_PLACEMENT_3D('',#323,#324,#325);
#168=FILL_AREA_STYLE_COLOUR('',#326);
#169=ORIENTED_EDGE('',*,*,#327,.T.);
#170=ORIENTED_EDGE('',*,*,#328,.T.);
#171=ORIENTED_EDGE('',*,*,#329,.T.);
#172=ORIENTED_EDGE('',*,*,#330,.T.);
#173=CARTESIAN_POINT('',(0.0,0.0,0.127));
#174=DIRECTION('',(0.0,0.0,1.0));
#175=DIRECTION('',(1.0,0.0,0.0));
#176=ORIENTED_EDGE('',*,*,#331,.T.);
#177=ORIENTED_EDGE('',*,*,#332,.T.);
#178=ORIENTED_EDGE('',*,*,#333,.T.);
#179=ORIENTED_EDGE('',*,*,#334,.T.);
#180=CARTESIAN_POINT('',(0.0,0.0,0.0));
#181=DIRECTION('',(0.0,0.0,1.0));
#182=DIRECTION('',(1.0,0.0,0.0));
#183=ORIENTED_EDGE('',*,*,#335,.T.);
#184=ORIENTED_EDGE('',*,*,#332,.F.);
#185=ORIENTED_EDGE('',*,*,#336,.F.);
#186=ORIENTED_EDGE('',*,*,#330,.F.);
#187=CARTESIAN_POINT('',(0.0,-0.675,0.0635));
#188=DIRECTION('',(0.0,1.0,0.0));
#189=DIRECTION('',(0.0,0.0,1.0));
#190=ORIENTED_EDGE('',*,*,#337,.T.);
#191=ORIENTED_EDGE('',*,*,#333,.F.);
#192=ORIENTED_EDGE('',*,*,#335,.F.);
#193=ORIENTED_EDGE('',*,*,#329,.F.);
#194=CARTESIAN_POINT('',(-0.675,0.0,0.0635));
#195=DIRECTION('',(1.0,0.0,0.0));
#196=DIRECTION('',(0.0,0.0,-1.0));
#197=ORIENTED_EDGE('',*,*,#338,.T.);
#198=ORIENTED_EDGE('',*,*,#334,.F.);
#199=ORIENTED_EDGE('',*,*,#337,.F.);
#200=ORIENTED_EDGE('',*,*,#328,.F.);
#201=CARTESIAN_POINT('',(0.0,0.675,0.0635));
#202=DIRECTION('',(0.0,-1.0,0.0));
#203=DIRECTION('',(0.0,0.0,-1.0));
#204=ORIENTED_EDGE('',*,*,#336,.T.);
#205=ORIENTED_EDGE('',*,*,#331,.F.);
#206=ORIENTED_EDGE('',*,*,#338,.F.);
#207=ORIENTED_EDGE('',*,*,#327,.F.);
#208=CARTESIAN_POINT('',(0.675,0.0,0.0635));
#209=DIRECTION('',(-1.0,0.0,0.0));
#210=DIRECTION('',(0.0,0.0,1.0));
#211=FILL_AREA_STYLE_COLOUR('',#339);
#212=ORIENTED_EDGE('',*,*,#340,.F.);
#213=ORIENTED_EDGE('',*,*,#341,.F.);
#214=ORIENTED_EDGE('',*,*,#342,.F.);
#215=ORIENTED_EDGE('',*,*,#343,.F.);
#216=CARTESIAN_POINT('',(0.1,0.0,0.13575));
#217=DIRECTION('',(-1.0,0.0,0.0));
#218=DIRECTION('',(0.0,0.0,1.0));
#219=ORIENTED_EDGE('',*,*,#344,.F.);
#220=ORIENTED_EDGE('',*,*,#345,.F.);
#221=ORIENTED_EDGE('',*,*,#346,.T.);
#222=ORIENTED_EDGE('',*,*,#347,.F.);
#223=CARTESIAN_POINT('',(-0.1,0.0,0.13575));
#224=DIRECTION('',(1.0,0.0,0.0));
#225=DIRECTION('',(0.0,0.0,-1.0));
#226=ORIENTED_EDGE('',*,*,#348,.F.);
#227=ORIENTED_EDGE('',*,*,#349,.F.);
#228=ORIENTED_EDGE('',*,*,#350,.F.);
#229=ORIENTED_EDGE('',*,*,#351,.F.);
#230=CARTESIAN_POINT('',(-0.1,0.0,0.13575));
#231=DIRECTION('',(1.0,0.0,0.0));
#232=DIRECTION('',(0.0,0.0,-1.0));
#233=ORIENTED_EDGE('',*,*,#350,.T.);
#234=ORIENTED_EDGE('',*,*,#352,.F.);
#235=ORIENTED_EDGE('',*,*,#353,.F.);
#236=ORIENTED_EDGE('',*,*,#354,.F.);
#237=CARTESIAN_POINT('',(0.0,-0.5625,0.13575));
#238=DIRECTION('',(0.0,1.0,0.0));
#239=DIRECTION('',(0.0,0.0,1.0));
#240=ORIENTED_EDGE('',*,*,#342,.T.);
#241=ORIENTED_EDGE('',*,*,#355,.F.);
#242=ORIENTED_EDGE('',*,*,#346,.F.);
#243=ORIENTED_EDGE('',*,*,#356,.F.);
#244=CARTESIAN_POINT('',(0.0,0.5625,0.13575));
#245=DIRECTION('',(0.0,-1.0,0.0));
#246=DIRECTION('',(0.0,0.0,-1.0));
#247=ORIENTED_EDGE('',*,*,#357,.F.);
#248=ORIENTED_EDGE('',*,*,#358,.F.);
#249=ORIENTED_EDGE('',*,*,#353,.T.);
#250=ORIENTED_EDGE('',*,*,#359,.F.);
#251=CARTESIAN_POINT('',(0.1,0.0,0.13575));
#252=DIRECTION('',(-1.0,0.0,0.0));
#253=DIRECTION('',(0.0,0.0,1.0));
#254=ORIENTED_EDGE('',*,*,#360,.T.);
#255=ORIENTED_EDGE('',*,*,#343,.T.);
#256=ORIENTED_EDGE('',*,*,#356,.T.);
#257=ORIENTED_EDGE('',*,*,#345,.T.);
#258=ORIENTED_EDGE('',*,*,#361,.T.);
#259=ORIENTED_EDGE('',*,*,#362,.T.);
#260=ORIENTED_EDGE('',*,*,#363,.T.);
#261=ORIENTED_EDGE('',*,*,#351,.T.);
#262=ORIENTED_EDGE('',*,*,#354,.T.);
#263=ORIENTED_EDGE('',*,*,#358,.T.);
#264=ORIENTED_EDGE('',*,*,#364,.T.);
#265=ORIENTED_EDGE('',*,*,#365,.T.);
#266=CARTESIAN_POINT('',(0.0,0.0,0.1445));
#267=DIRECTION('',(0.0,0.0,1.0));
#268=DIRECTION('',(1.0,0.0,0.0));
#269=ORIENTED_EDGE('',*,*,#357,.T.);
#270=ORIENTED_EDGE('',*,*,#366,.F.);
#271=ORIENTED_EDGE('',*,*,#367,.F.);
#272=ORIENTED_EDGE('',*,*,#364,.F.);
#273=CARTESIAN_POINT('',(0.0,-0.1,0.13575));
#274=DIRECTION('',(0.0,1.0,0.0));
#275=DIRECTION('',(0.0,0.0,1.0));
#276=ORIENTED_EDGE('',*,*,#344,.T.);
#277=ORIENTED_EDGE('',*,*,#368,.F.);
#278=ORIENTED_EDGE('',*,*,#369,.F.);
#279=ORIENTED_EDGE('',*,*,#361,.F.);
#280=CARTESIAN_POINT('',(0.0,0.1,0.13575));
#281=DIRECTION('',(0.0,-1.0,0.0));
#282=DIRECTION('',(0.0,0.0,-1.0));
#283=ORIENTED_EDGE('',*,*,#368,.T.);
#284=ORIENTED_EDGE('',*,*,#347,.T.);
#285=ORIENTED_EDGE('',*,*,#355,.T.);
#286=ORIENTED_EDGE('',*,*,#341,.T.);
#287=ORIENTED_EDGE('',*,*,#370,.T.);
#288=ORIENTED_EDGE('',*,*,#371,.T.);
#289=ORIENTED_EDGE('',*,*,#366,.T.);
#290=ORIENTED_EDGE('',*,*,#359,.T.);
#291=ORIENTED_EDGE('',*,*,#352,.T.);
#292=ORIENTED_EDGE('',*,*,#349,.T.);
#293=ORIENTED_EDGE('',*,*,#372,.T.);
#294=ORIENTED_EDGE('',*,*,#373,.T.);
#295=CARTESIAN_POINT('',(0.0,0.0,0.127));
#296=DIRECTION('',(0.0,0.0,1.0));
#297=DIRECTION('',(1.0,0.0,0.0));
#298=ORIENTED_EDGE('',*,*,#348,.T.);
#299=ORIENTED_EDGE('',*,*,#363,.F.);
#300=ORIENTED_EDGE('',*,*,#374,.T.);
#301=ORIENTED_EDGE('',*,*,#372,.F.);
#302=CARTESIAN_POINT('',(0.0,-0.1,0.13575));
#303=DIRECTION('',(0.0,1.0,0.0));
#304=DIRECTION('',(0.0,0.0,1.0));
#305=ORIENTED_EDGE('',*,*,#369,.T.);
#306=ORIENTED_EDGE('',*,*,#373,.F.);
#307=ORIENTED_EDGE('',*,*,#374,.F.);
#308=ORIENTED_EDGE('',*,*,#362,.F.);
#309=CARTESIAN_POINT('',(-0.5625,0.0,0.13575));
#310=DIRECTION('',(1.0,0.0,0.0));
#311=DIRECTION('',(0.0,0.0,-1.0));
#312=ORIENTED_EDGE('',*,*,#340,.T.);
#313=ORIENTED_EDGE('',*,*,#360,.F.);
#314=ORIENTED_EDGE('',*,*,#375,.T.);
#315=ORIENTED_EDGE('',*,*,#370,.F.);
#316=CARTESIAN_POINT('',(0.0,0.1,0.13575));
#317=DIRECTION('',(0.0,-1.0,0.0));
#318=DIRECTION('',(0.0,0.0,-1.0));
#319=ORIENTED_EDGE('',*,*,#367,.T.);
#320=ORIENTED_EDGE('',*,*,#371,.F.);
#321=ORIENTED_EDGE('',*,*,#375,.F.);
#322=ORIENTED_EDGE('',*,*,#365,.F.);
#323=CARTESIAN_POINT('',(0.5625,0.0,0.13575));
#324=DIRECTION('',(-1.0,0.0,0.0));
#325=DIRECTION('',(0.0,0.0,1.0));
#326=COLOUR_RGB('',0.939999997615814,0.819999992847443,0.759999990463257);
#327=EDGE_CURVE('',#376,#377,#378,.T.);
#328=EDGE_CURVE('',#377,#379,#380,.T.);
#329=EDGE_CURVE('',#379,#381,#382,.T.);
#330=EDGE_CURVE('',#381,#376,#383,.T.);
#331=EDGE_CURVE('',#384,#385,#386,.T.);
#332=EDGE_CURVE('',#385,#387,#388,.T.);
#333=EDGE_CURVE('',#387,#389,#390,.T.);
#334=EDGE_CURVE('',#389,#384,#391,.T.);
#335=EDGE_CURVE('',#381,#387,#392,.T.);
#336=EDGE_CURVE('',#376,#385,#393,.T.);
#337=EDGE_CURVE('',#379,#389,#394,.T.);
#338=EDGE_CURVE('',#377,#384,#395,.T.);
#339=COLOUR_RGB('',1.0,1.0,0.0);
#340=EDGE_CURVE('',#396,#397,#398,.T.);
#341=EDGE_CURVE('',#399,#396,#400,.T.);
#342=EDGE_CURVE('',#401,#399,#402,.T.);
#343=EDGE_CURVE('',#397,#401,#403,.T.);
#344=EDGE_CURVE('',#404,#405,#406,.T.);
#345=EDGE_CURVE('',#407,#404,#408,.T.);
#346=EDGE_CURVE('',#407,#409,#410,.T.);
#347=EDGE_CURVE('',#405,#409,#411,.T.);
#348=EDGE_CURVE('',#412,#413,#414,.T.);
#349=EDGE_CURVE('',#415,#412,#416,.T.);
#350=EDGE_CURVE('',#417,#415,#418,.T.);
#351=EDGE_CURVE('',#413,#417,#419,.T.);
#352=EDGE_CURVE('',#420,#415,#421,.T.);
#353=EDGE_CURVE('',#422,#420,#423,.T.);
#354=EDGE_CURVE('',#417,#422,#424,.T.);
#355=EDGE_CURVE('',#409,#399,#425,.T.);
#356=EDGE_CURVE('',#401,#407,#426,.T.);
#357=EDGE_CURVE('',#427,#428,#429,.T.);
#358=EDGE_CURVE('',#422,#427,#430,.T.);
#359=EDGE_CURVE('',#428,#420,#431,.T.);
#360=EDGE_CURVE('',#432,#397,#433,.T.);
#361=EDGE_CURVE('',#404,#434,#435,.T.);
#362=EDGE_CURVE('',#434,#436,#437,.T.);
#363=EDGE_CURVE('',#436,#413,#438,.T.);
#364=EDGE_CURVE('',#427,#439,#440,.T.);
#365=EDGE_CURVE('',#439,#432,#441,.T.);
#366=EDGE_CURVE('',#442,#428,#443,.T.);
#367=EDGE_CURVE('',#439,#442,#444,.T.);
#368=EDGE_CURVE('',#445,#405,#446,.T.);
#369=EDGE_CURVE('',#434,#445,#447,.T.);
#370=EDGE_CURVE('',#396,#448,#449,.T.);
#371=EDGE_CURVE('',#448,#442,#450,.T.);
#372=EDGE_CURVE('',#412,#451,#452,.T.);
#373=EDGE_CURVE('',#451,#445,#453,.T.);
#374=EDGE_CURVE('',#436,#451,#454,.T.);
#375=EDGE_CURVE('',#432,#448,#455,.T.);
#376=VERTEX_POINT('',#456);
#377=VERTEX_POINT('',#457);
#378=LINE('',#458,#459);
#379=VERTEX_POINT('',#460);
#380=LINE('',#461,#462);
#381=VERTEX_POINT('',#463);
#382=LINE('',#464,#465);
#383=LINE('',#466,#467);
#384=VERTEX_POINT('',#468);
#385=VERTEX_POINT('',#469);
#386=LINE('',#470,#471);
#387=VERTEX_POINT('',#472);
#388=LINE('',#473,#474);
#389=VERTEX_POINT('',#475);
#390=LINE('',#476,#477);
#391=LINE('',#478,#479);
#392=LINE('',#480,#481);
#393=LINE('',#482,#483);
#394=LINE('',#484,#485);
#395=LINE('',#486,#487);
#396=VERTEX_POINT('',#488);
#397=VERTEX_POINT('',#489);
#398=LINE('',#490,#491);
#399=VERTEX_POINT('',#492);
#400=LINE('',#493,#494);
#401=VERTEX_POINT('',#495);
#402=LINE('',#496,#497);
#403=LINE('',#498,#499);
#404=VERTEX_POINT('',#500);
#405=VERTEX_POINT('',#501);
#406=LINE('',#502,#503);
#407=VERTEX_POINT('',#504);
#408=LINE('',#505,#506);
#409=VERTEX_POINT('',#507);
#410=LINE('',#508,#509);
#411=LINE('',#510,#511);
#412=VERTEX_POINT('',#512);
#413=VERTEX_POINT('',#513);
#414=LINE('',#514,#515);
#415=VERTEX_POINT('',#516);
#416=LINE('',#517,#518);
#417=VERTEX_POINT('',#519);
#418=LINE('',#520,#521);
#419=LINE('',#522,#523);
#420=VERTEX_POINT('',#524);
#421=LINE('',#525,#526);
#422=VERTEX_POINT('',#527);
#423=LINE('',#528,#529);
#424=LINE('',#530,#531);
#425=LINE('',#532,#533);
#426=LINE('',#534,#535);
#427=VERTEX_POINT('',#536);
#428=VERTEX_POINT('',#537);
#429=LINE('',#538,#539);
#430=LINE('',#540,#541);
#431=LINE('',#542,#543);
#432=VERTEX_POINT('',#544);
#433=LINE('',#545,#546);
#434=VERTEX_POINT('',#547);
#435=LINE('',#548,#549);
#436=VERTEX_POINT('',#550);
#437=LINE('',#551,#552);
#438=LINE('',#553,#554);
#439=VERTEX_POINT('',#555);
#440=LINE('',#556,#557);
#441=LINE('',#558,#559);
#442=VERTEX_POINT('',#560);
#443=LINE('',#561,#562);
#444=LINE('',#563,#564);
#445=VERTEX_POINT('',#565);
#446=LINE('',#566,#567);
#447=LINE('',#568,#569);
#448=VERTEX_POINT('',#570);
#449=LINE('',#571,#572);
#450=LINE('',#573,#574);
#451=VERTEX_POINT('',#575);
#452=LINE('',#576,#577);
#453=LINE('',#578,#579);
#454=LINE('',#580,#581);
#455=LINE('',#582,#583);
#456=CARTESIAN_POINT('',(0.675,-0.675,0.127));
#457=CARTESIAN_POINT('',(0.675,0.675,0.127));
#458=CARTESIAN_POINT('',(0.675,0.0,0.127));
#459=VECTOR('',#584,1.0);
#460=CARTESIAN_POINT('',(-0.675,0.675,0.127));
#461=CARTESIAN_POINT('',(0.0,0.675,0.127));
#462=VECTOR('',#585,1.0);
#463=CARTESIAN_POINT('',(-0.675,-0.675,0.127));
#464=CARTESIAN_POINT('',(-0.675,0.0,0.127));
#465=VECTOR('',#586,1.0);
#466=CARTESIAN_POINT('',(0.0,-0.675,0.127));
#467=VECTOR('',#587,1.0);
#468=CARTESIAN_POINT('',(0.675,0.675,0.0));
#469=CARTESIAN_POINT('',(0.675,-0.675,0.0));
#470=CARTESIAN_POINT('',(0.675,0.0,0.0));
#471=VECTOR('',#588,1.0);
#472=CARTESIAN_POINT('',(-0.675,-0.675,0.0));
#473=CARTESIAN_POINT('',(0.0,-0.675,0.0));
#474=VECTOR('',#589,1.0);
#475=CARTESIAN_POINT('',(-0.675,0.675,0.0));
#476=CARTESIAN_POINT('',(-0.675,0.0,0.0));
#477=VECTOR('',#590,1.0);
#478=CARTESIAN_POINT('',(0.0,0.675,0.0));
#479=VECTOR('',#591,1.0);
#480=CARTESIAN_POINT('',(-0.675,-0.675,0.0635));
#481=VECTOR('',#592,1.0);
#482=CARTESIAN_POINT('',(0.675,-0.675,0.0635));
#483=VECTOR('',#593,1.0);
#484=CARTESIAN_POINT('',(-0.675,0.675,0.0635));
#485=VECTOR('',#594,1.0);
#486=CARTESIAN_POINT('',(0.675,0.675,0.0635));
#487=VECTOR('',#595,1.0);
#488=CARTESIAN_POINT('',(0.1,0.1,0.127));
#489=CARTESIAN_POINT('',(0.1,0.1,0.1445));
#490=CARTESIAN_POINT('',(0.1,0.1,0.13575));
#491=VECTOR('',#596,1.0);
#492=CARTESIAN_POINT('',(0.1,0.5625,0.127));
#493=CARTESIAN_POINT('',(0.1,0.0,0.127));
#494=VECTOR('',#597,1.0);
#495=CARTESIAN_POINT('',(0.1,0.5625,0.1445));
#496=CARTESIAN_POINT('',(0.1,0.5625,0.13575));
#497=VECTOR('',#598,1.0);
#498=CARTESIAN_POINT('',(0.1,0.0,0.1445));
#499=VECTOR('',#599,1.0);
#500=CARTESIAN_POINT('',(-0.1,0.1,0.1445));
#501=CARTESIAN_POINT('',(-0.1,0.1,0.127));
#502=CARTESIAN_POINT('',(-0.1,0.1,0.13575));
#503=VECTOR('',#600,1.0);
#504=CARTESIAN_POINT('',(-0.1,0.5625,0.1445));
#505=CARTESIAN_POINT('',(-0.1,0.0,0.1445));
#506=VECTOR('',#601,1.0);
#507=CARTESIAN_POINT('',(-0.1,0.5625,0.127));
#508=CARTESIAN_POINT('',(-0.1,0.5625,0.13575));
#509=VECTOR('',#602,1.0);
#510=CARTESIAN_POINT('',(-0.1,0.0,0.127));
#511=VECTOR('',#603,1.0);
#512=CARTESIAN_POINT('',(-0.1,-0.1,0.127));
#513=CARTESIAN_POINT('',(-0.1,-0.1,0.1445));
#514=CARTESIAN_POINT('',(-0.1,-0.1,0.13575));
#515=VECTOR('',#604,1.0);
#516=CARTESIAN_POINT('',(-0.1,-0.5625,0.127));
#517=CARTESIAN_POINT('',(-0.1,0.0,0.127));
#518=VECTOR('',#605,1.0);
#519=CARTESIAN_POINT('',(-0.1,-0.5625,0.1445));
#520=CARTESIAN_POINT('',(-0.1,-0.5625,0.13575));
#521=VECTOR('',#606,1.0);
#522=CARTESIAN_POINT('',(-0.1,0.0,0.1445));
#523=VECTOR('',#607,1.0);
#524=CARTESIAN_POINT('',(0.1,-0.5625,0.127));
#525=CARTESIAN_POINT('',(0.0,-0.5625,0.127));
#526=VECTOR('',#608,1.0);
#527=CARTESIAN_POINT('',(0.1,-0.5625,0.1445));
#528=CARTESIAN_POINT('',(0.1,-0.5625,0.13575));
#529=VECTOR('',#609,1.0);
#530=CARTESIAN_POINT('',(0.0,-0.5625,0.1445));
#531=VECTOR('',#610,1.0);
#532=CARTESIAN_POINT('',(0.0,0.5625,0.127));
#533=VECTOR('',#611,1.0);
#534=CARTESIAN_POINT('',(0.0,0.5625,0.1445));
#535=VECTOR('',#612,1.0);
#536=CARTESIAN_POINT('',(0.1,-0.1,0.1445));
#537=CARTESIAN_POINT('',(0.1,-0.1,0.127));
#538=CARTESIAN_POINT('',(0.1,-0.1,0.13575));
#539=VECTOR('',#613,1.0);
#540=CARTESIAN_POINT('',(0.1,0.0,0.1445));
#541=VECTOR('',#614,1.0);
#542=CARTESIAN_POINT('',(0.1,0.0,0.127));
#543=VECTOR('',#615,1.0);
#544=CARTESIAN_POINT('',(0.5625,0.1,0.1445));
#545=CARTESIAN_POINT('',(0.0,0.1,0.1445));
#546=VECTOR('',#616,1.0);
#547=CARTESIAN_POINT('',(-0.5625,0.1,0.1445));
#548=CARTESIAN_POINT('',(0.0,0.1,0.1445));
#549=VECTOR('',#617,1.0);
#550=CARTESIAN_POINT('',(-0.5625,-0.1,0.1445));
#551=CARTESIAN_POINT('',(-0.5625,0.0,0.1445));
#552=VECTOR('',#618,1.0);
#553=CARTESIAN_POINT('',(0.0,-0.1,0.1445));
#554=VECTOR('',#619,1.0);
#555=CARTESIAN_POINT('',(0.5625,-0.1,0.1445));
#556=CARTESIAN_POINT('',(0.0,-0.1,0.1445));
#557=VECTOR('',#620,1.0);
#558=CARTESIAN_POINT('',(0.5625,0.0,0.1445));
#559=VECTOR('',#621,1.0);
#560=CARTESIAN_POINT('',(0.5625,-0.1,0.127));
#561=CARTESIAN_POINT('',(0.0,-0.1,0.127));
#562=VECTOR('',#622,1.0);
#563=CARTESIAN_POINT('',(0.5625,-0.1,0.13575));
#564=VECTOR('',#623,1.0);
#565=CARTESIAN_POINT('',(-0.5625,0.1,0.127));
#566=CARTESIAN_POINT('',(0.0,0.1,0.127));
#567=VECTOR('',#624,1.0);
#568=CARTESIAN_POINT('',(-0.5625,0.1,0.13575));
#569=VECTOR('',#625,1.0);
#570=CARTESIAN_POINT('',(0.5625,0.1,0.127));
#571=CARTESIAN_POINT('',(0.0,0.1,0.127));
#572=VECTOR('',#626,1.0);
#573=CARTESIAN_POINT('',(0.5625,0.0,0.127));
#574=VECTOR('',#627,1.0);
#575=CARTESIAN_POINT('',(-0.5625,-0.1,0.127));
#576=CARTESIAN_POINT('',(0.0,-0.1,0.127));
#577=VECTOR('',#628,1.0);
#578=CARTESIAN_POINT('',(-0.5625,0.0,0.127));
#579=VECTOR('',#629,1.0);
#580=CARTESIAN_POINT('',(-0.5625,-0.1,0.13575));
#581=VECTOR('',#630,1.0);
#582=CARTESIAN_POINT('',(0.5625,0.1,0.13575));
#583=VECTOR('',#631,1.0);
#584=DIRECTION('',(0.0,1.0,0.0));
#585=DIRECTION('',(-1.0,0.0,0.0));
#586=DIRECTION('',(0.0,-1.0,0.0));
#587=DIRECTION('',(1.0,0.0,0.0));
#588=DIRECTION('',(0.0,-1.0,0.0));
#589=DIRECTION('',(-1.0,0.0,0.0));
#590=DIRECTION('',(0.0,1.0,0.0));
#591=DIRECTION('',(1.0,0.0,0.0));
#592=DIRECTION('',(0.0,0.0,-1.0));
#593=DIRECTION('',(0.0,0.0,-1.0));
#594=DIRECTION('',(0.0,0.0,-1.0));
#595=DIRECTION('',(0.0,0.0,-1.0));
#596=DIRECTION('',(0.0,0.0,1.0));
#597=DIRECTION('',(0.0,-1.0,0.0));
#598=DIRECTION('',(0.0,0.0,-1.0));
#599=DIRECTION('',(0.0,1.0,0.0));
#600=DIRECTION('',(0.0,0.0,-1.0));
#601=DIRECTION('',(0.0,-1.0,0.0));
#602=DIRECTION('',(0.0,0.0,-1.0));
#603=DIRECTION('',(0.0,1.0,0.0));
#604=DIRECTION('',(0.0,0.0,1.0));
#605=DIRECTION('',(0.0,1.0,0.0));
#606=DIRECTION('',(0.0,0.0,-1.0));
#607=DIRECTION('',(0.0,-1.0,0.0));
#608=DIRECTION('',(-1.0,0.0,0.0));
#609=DIRECTION('',(0.0,0.0,-1.0));
#610=DIRECTION('',(1.0,0.0,0.0));
#611=DIRECTION('',(1.0,0.0,0.0));
#612=DIRECTION('',(-1.0,0.0,0.0));
#613=DIRECTION('',(0.0,0.0,-1.0));
#614=DIRECTION('',(0.0,1.0,0.0));
#615=DIRECTION('',(0.0,-1.0,0.0));
#616=DIRECTION('',(-1.0,0.0,0.0));
#617=DIRECTION('',(-1.0,0.0,0.0));
#618=DIRECTION('',(0.0,-1.0,0.0));
#619=DIRECTION('',(1.0,0.0,0.0));
#620=DIRECTION('',(1.0,0.0,0.0));
#621=DIRECTION('',(0.0,1.0,0.0));
#622=DIRECTION('',(-1.0,0.0,0.0));
#623=DIRECTION('',(0.0,0.0,-1.0));
#624=DIRECTION('',(1.0,0.0,0.0));
#625=DIRECTION('',(0.0,0.0,-1.0));
#626=DIRECTION('',(1.0,0.0,0.0));
#627=DIRECTION('',(0.0,-1.0,0.0));
#628=DIRECTION('',(-1.0,0.0,0.0));
#629=DIRECTION('',(0.0,1.0,0.0));
#630=DIRECTION('',(0.0,0.0,-1.0));
#631=DIRECTION('',(0.0,0.0,-1.0));
#632=PRESENTATION_LAYER_ASSIGNMENT('Copper (annealed)','Copper (annealed)',(#30));
#633=PRESENTATION_LAYER_ASSIGNMENT('Rogers RT-duroid 5880 (lossy)','Rogers RT-duroid 5880 (lossy)',(#28));
ENDSEC;
END-ISO-10303-21;
